<svg id="Layer_2" data-name="Layer 2" xmlns="http://www.w3.org/2000/svg" xmlns:xlink="http://www.w3.org/1999/xlink" viewBox="0 0 1366 768"><defs><style>.cls-1{fill:url(#linear-gradient);}.cls-2{fill:url(#linear-gradient-2);}</style><linearGradient id="linear-gradient" x1="841.15" y1="277.04" x2="843.6" y2="503.14" gradientUnits="userSpaceOnUse"><stop offset="0" stop-color="#fffd3b"/><stop offset="0.08" stop-color="#fff93e" stop-opacity="0.97"/><stop offset="0.19" stop-color="#ffee48" stop-opacity="0.89"/><stop offset="0.33" stop-color="#ffdd57" stop-opacity="0.75"/><stop offset="0.49" stop-color="#ffc56c" stop-opacity="0.57"/><stop offset="0.67" stop-color="#ffa587" stop-opacity="0.33"/><stop offset="0.86" stop-color="#ff80a8" stop-opacity="0.04"/><stop offset="0.88" stop-color="#ff7bac" stop-opacity="0"/></linearGradient><linearGradient id="linear-gradient-2" x1="405.56" y1="460.33" x2="1178.09" y2="460.33" gradientUnits="userSpaceOnUse"><stop offset="0" stop-color="#ff7bac" stop-opacity="0"/><stop offset="0.13" stop-color="#c097c6" stop-opacity="0.32"/><stop offset="0.26" stop-color="#88afde" stop-opacity="0.61"/><stop offset="0.37" stop-color="#5fc1ef" stop-opacity="0.82"/><stop offset="0.45" stop-color="#46ccf9" stop-opacity="0.95"/><stop offset="0.49" stop-color="#3dd0fd"/><stop offset="0.6" stop-color="#6abcea" stop-opacity="0.77"/><stop offset="0.8" stop-color="#b99ac9" stop-opacity="0.36"/><stop offset="0.94" stop-color="#eb84b4" stop-opacity="0.1"/><stop offset="1" stop-color="#ff7bac" stop-opacity="0"/></linearGradient></defs><title>Artboard 4</title><path class="cls-1" d="M969.92,398.45q0,6.33-.6,12.49a126.52,126.52,0,0,1-17.49,53,116.13,116.13,0,0,0-28.41-4c-43.62,0-106,24.74-158.74,39.5a127.45,127.45,0,1,1,205.24-101Z"/><path class="cls-2" d="M1102.73,509.41c-37.78,9.93-98.3-32-150.9-45.47a116.13,116.13,0,0,0-28.41-4c-43.62,0-106,24.74-158.74,39.5-17,4.74-33,8.46-47,10-56,6.1-105.8-56.56-147.43-66.77s-155.17,45.47-164,40.06c-12.81-7.85,155.72-69.91,175.8-69.91,50.12,0,90.79,51.06,142,52.63,3.23.1,6.51.06,9.86-.11,49.76-2.47,112.72-33.05,194-52.52a107,107,0,0,1,41.36-1.85c61.87,9.38,104.76,69.92,147.82,68.62,52-1.57,52.84-32.21,60-22.78S1147.56,497.63,1102.73,509.41Z"/><path d="M288.73,428.36a1.92,1.92,0,0,0-2.56-.51C257,445,222.9,448,206.82,434.71c-5.55-4.56-2.93-22.24,8-54l3.17,0c1.83,0,3.68,0,5.5,0,11.08,0,45.52-6.17,47.45-9.78a1,1,0,0,0,0-1c-1.6-2.4-35.26-.16-52.82,1.56,3.33-9.26,6.83-18.44,10.21-27.33,2.79-7.35,5.43-14.29,7.63-20.36,21.22-.95,45.3-1.64,47.44-1.1.45.11.53.3.55.36.27.67-.8,2.32-1.65,3.64-1.13,1.74-2.11,3.25-1.56,4.25.28.51.86.76,1.78.76,4.66,0,19.57-10.76,21.56-15.55a1.93,1.93,0,0,0-.21-2.3c-2.06-2.07-39-.51-65,1.52a88.73,88.73,0,0,0,2.85-10A2,2,0,0,0,238,304c-1.31,2.7-3.28,6.76-5.68,11.82-21.1,1.83-32.31,3.72-33.31,5.63a.9.9,0,0,0,0,.91c1.72,3,3.28,4.56,4.77,4.73a3.34,3.34,0,0,0,2.79-1.4l.17-.17c.82-.25,6.94-.76,21.69-1.47-5.83,12.46-14.15,30.73-21.48,48.57-12.43,1.61-12.83,2.58-13,3.05a.73.73,0,0,0,.12.75c1.65,2.07,4.79,3.3,9.81,3.87C193,407.72,188.34,425.2,190,432.22c5.12,21.48,25.87,24.38,45.49,24.38,16.37,0,40.27-13.3,53-25.63A1.93,1.93,0,0,0,288.73,428.36Z"/><path d="M390.8,369.27c-.77-2.15-3.24-5.48-11.2-3.68-5.6,1.26-23.91,18.2-38.54,32.45-5.65-20.62-10.05-33.55-14.46-34.43-8.25-1.65-19.14,7.48-21.21,12.84-1,2.52.12,3.64.85,4.08,2.88,1.72,5.22.12,7.7-1.59,2.28-1.56,4.87-3.34,8.56-3.34,3.38,0,9.87,19.49,12.74,28.15-26.69,26.37-55.15,57-58.93,62.28a15.5,15.5,0,0,0-.9,16.37c1.69,3.28,4.21,5.59,6.15,5.63a4.42,4.42,0,0,0,.77.07A3.57,3.57,0,0,0,285,487c1.92-2.14,1.59-6.86-1-14.05s17.95-26.9,53.53-62l1.61,5c8.07,25,13.26,40.18,17.25,40.68a4.93,4.93,0,0,0,.55,0c7.15,0,20.25-16,22.31-22.78.5-1.68.31-2.75-.58-3.2-2.18-1.09-5.36,1.51-9.4,4.79s-8.78,7.16-12.82,7.16c-3.46,0-8.6-19.14-13.13-36l-.16-.58c20.17-17.59,37.19-31,38.69-31.75,2.07-1,3.46-.28,4.81.43,1,.54,2,1.05,3,.54C391,374.61,391.68,371.75,390.8,369.27Z"/><path d="M501.33,434.08c-6.76,3.5-16,8.29-20.66,6.55-3.46-1.3-.43-19.21,2.25-35,2.86-16.93,5.57-32.92,2.42-36.3a2.21,2.21,0,0,0-1.89-.71c-8.54.86-27.09,31.81-33.44,42.82,2.68-10.2,8.92-36.16,4.74-41.66a2.71,2.71,0,0,0-2.25-1.16c-8.09,0-32.31,37.38-39,47.94,2.19-11.46,8-44.84,3.08-50.89a2.65,2.65,0,0,0-2.09-1c-7.89,0-19.89,14.15-20.31,19.14-.12,1.47.82,1.79,1.23,1.85,2.92.5,6.81-2,10.24-4.24,2.37-1.53,5-3.27,5.93-2.78.37.21.43.94.41,1.51-.52,17-8.1,34.22-14.19,48.08-4.73,10.75-8.15,18.52-6.58,22.36a3.58,3.58,0,0,0,2.08,2c5.42,2.18,16-11.52,30.38-31.09,7.17-9.77,14.58-19.87,16.81-19.87a.35.35,0,0,1,.31.16c1.36,1.78-1.58,12.55-4.18,22.05-3.35,12.27-6.52,23.85-4.5,26.94a1.85,1.85,0,0,0,1.3.85c3.8.53,11.64-11.45,23.17-29.8,6.61-10.52,14.85-23.62,16.8-23.21,1.46.29.43,8-.48,14.86-1.84,13.79-4.36,32.69,3.26,39a9.61,9.61,0,0,0,6.31,2.14c5.48,0,13.09-3.62,22.25-13.66.32-.35,7.78-8.55,6.11-10.21C509.85,429.74,507.05,431.12,501.33,434.08Z"/><path d="M1226.17,387.79a.7.7,0,0,0-.83-.16c-5.51,1.83-12.51,0-14.39-3.75-1.33-2.65-.72-7.43-.13-12.05.81-6.35,1.57-12.34-2.1-14.18-5.24-2.61-14.49,12.31-27,33.69-6.42,11-13.06,22.35-15.28,22.35a.46.46,0,0,1-.37-.19c-1.55-1.84.31-12.65,2-22.2,2.1-12.17,4.08-23.67,1.83-26.76a1.94,1.94,0,0,0-1.34-.84c-3.81-.54-11.65,11.44-23.17,29.79-6.61,10.51-14.79,23.61-16.8,23.21-1.46-.29-.43-8,.48-14.86,1.84-13.79,4.36-32.69-3.26-39-5-4.13-15.06-3.27-28.57,11.52-.31.35-7.77,8.55-6.1,10.21,1,1,3.79-.37,9.51-3.33,6.77-3.5,16-8.29,20.66-6.55,3.47,1.3.44,19.22-2.24,35-2.87,16.93-5.57,32.92-2.42,36.3a2.15,2.15,0,0,0,1.63.72h.26c8.88-.89,28.56-34.27,34-43.8-1.42,9-5.33,36.79-.43,42.62a3,3,0,0,0,2.38,1.18c8.66,0,41.85-56.65,46.88-65.32,2.66,8.86,6.66,13.65,11.91,14.23,6.13.68,11.88-4.88,12.87-6.74C1226.21,388.69,1226.49,388.17,1226.17,387.79Z"/><path d="M584.76,384c6.76-3.5,16-8.28,20.66-6.55,3.47,1.3.43,19.22-2.24,35-2.87,16.94-5.58,32.93-2.42,36.3a2.15,2.15,0,0,0,1.88.71c8.54-.85,27.05-31.73,33.41-42.77-3.08,11.61-9.68,39.6-2.66,42.73,4.85,2.15,11.33,1.37,16.53-2,3.92-2.55,6.17-6,6.17-9.45,0-1.4-.36-2.29-1.1-2.72-1.55-.89-4.16.65-7.18,2.42s-6.74,4-8.42,2.64c-2.27-1.78-1.37-9.59,2.68-23.19.28-.92.91-2.77,1.79-5.33,6.66-19.34,13.09-39.72,10.29-44.29a2,2,0,0,0-1.49-1c-3.78-.53-11.64,11.44-23.17,29.79-6.6,10.52-14.84,23.6-16.8,23.21-1.45-.29-.42-8,.49-14.85,1.83-13.8,4.35-32.69-3.27-39a9.61,9.61,0,0,0-6.31-2.14c-5.48,0-13.08,3.62-22.25,13.66-.32.35-5,6.24-3.35,7.9C579,386,579,386.94,584.76,384Z"/><path d="M700.33,433.08c-6.76,3.5-16,8.29-20.66,6.55,0,0-.18-.07-.3-.34-1.84-4.16,8.52-30.2,17.71-53.27,9.14-1.58,34.42-6.65,35.92-10.15a1.06,1.06,0,0,0-.08-1.05c-1.36-2-21.93-.38-31.6.51C712.16,348,718,331.51,715.79,328.28a1.5,1.5,0,0,0-1.29-.68c-4.85,0-17.6,25-27.18,49.21-14.9,1.78-22.76,3.4-23.33,4.81a.76.76,0,0,0,.12.79c2.6,3.26,9.17,5.08,18.17,5.08h1c-6,16.63-18.17,54.55-8.14,64a9.21,9.21,0,0,0,6.46,2.38c4.45,0,11.16-2.52,20.49-12.14,3.75-3.86,9.17-10.52,7.74-11.95C708.85,428.74,706.05,430.12,700.33,433.08Z"/><path d="M797.33,433.08c-6.76,3.5-16,8.28-20.66,6.55-3.46-1.3-.43-19.21,2.25-35,2.86-16.93,5.57-32.92,2.42-36.3a2.21,2.21,0,0,0-1.89-.71c-8.3.83-26,30-32.72,41.58,10.23-29.84,43-127.55,37.13-135.85a1.62,1.62,0,0,0-1.36-.73c-7.4,0-12,18.16-19.73,48.24-5.5,21.54-12.35,48.34-22.74,79.1-.19.55-.51,1.45-.93,2.64-6.26,17.74-14.23,41.92-11.17,47a2.07,2.07,0,0,0,1.5,1c3.8.51,11.64-11.45,23.17-29.8,6.51-10.36,14.59-23.22,16.71-23.22h.09c1.46.29.43,8-.48,14.86-1.84,13.79-4.36,32.69,3.26,39a9.61,9.61,0,0,0,6.31,2.14c5.48,0,13.09-3.62,22.25-13.66.32-.35,7.78-8.55,6.11-10.21C805.85,428.74,803.05,430.12,797.33,433.08Z"/><path d="M561,360.82c-10.56-4.11-24.06,1.69-29.86,6.91-8.34,7.51-10.89,15.87-9.44,17.74.22.28.85.85,2.06,0a30.85,30.85,0,0,0,4.35-4.75c4.15-5,10.43-12.67,16.49-14.18,6.88-1.72,11.87-1.5,15.27.69,2.66,1.72,4.34,4.64,5.12,8.91.85,4.72-1.38,15.09-6,27.74-4,11-9,21.47-11.91,24.85-5.36,6.25-15.39,15.86-22.3,9.94-3-2.55,5.32-15.93,12.64-27.74,8.13-13.13,15.81-25.52,14.11-30.44a3,3,0,0,0-1.9-1.91h0a4.82,4.82,0,0,0-3.83.7C536.3,384.4,518.44,410.27,515,424c-2.36,9.48-1.72,16.81,1.91,21.79,3,4.09,7.87,6.38,14.55,6.83l.59,0c4.76,0,10.91-3.65,17.42-10.36C563.19,428.13,576,402.92,574,382.05,572.93,371.05,568.44,363.7,561,360.82Z"/><path d="M986.66,333.59c2.17-.24,21.34-3.89,21.34-7.49,0-2-3.55-2.67-9.44-3.85-5-1-11.13-2.22-16.87-4.61s-8.31-7.4-10.66-11.86c-2.49-4.74-4.65-8.84-9.69-7.15-2.77.92-4.24,3.78-4.15,8,.19,8.33,6.69,21.72,16.91,24.83,5.74,20.08-53.55,78.27-63.53,87.88,2.1-7.05,8.67-33.16,4.43-71.33-2.81-25.27-13.25-35.26-21.51-39.2-10.78-5.13-22-2.22-28.26,1.83-6.64,4.27-8.94,15.58-9.71,24.32-.88,10.18.05,19.68.82,22.13.1.34.33,1,.89,1s.7-.69.76-.94h0c7.21-30.68,17-35.49,22.19-35.63,8.89-.27,17.78,12,23.84,32.65,5,17.18.11,43.06-3.84,63.86-3.36,17.7-5.79,30.49-.78,31.49l.26.05.18-.18c34.71-33.14,77.86-79.86,86.34-114.17A13.94,13.94,0,0,1,986.66,333.59Z"/><path d="M1005.92,405c10.86-18.07,22.08-36.74,17.86-43.22-1.24-1.9-3.71-2.63-7.34-2.18s-14.91,24.64-18.25,32c-8.6,19-15.66,37.65-18,47.46-1.54,6.52-.73,7.93,0,8.43a2.93,2.93,0,0,0,1.63.43c1.43,0,3.4-.68,6-2.06,12.11-6.48,35.18-27.77,35.18-33.79a1.13,1.13,0,0,0-.63-1.16c-1.6-.73-5.65,2.64-14.54,10.49-5.81,5.13-14.58,12.87-16,11.84-.13-.09-.67-.76,1.14-5C995.53,422.29,1000.58,413.89,1005.92,405Z"/><path d="M1035.91,326.81a5.43,5.43,0,0,0-5.63-2.23,11,11,0,0,0-8,7.48,6,6,0,0,0,1.94,6.42,7.48,7.48,0,0,0,4.93,2,8,8,0,0,0,5.3-2.17C1037.31,335.6,1038.77,330.81,1035.91,326.81Z"/><path d="M1087.38,418h-.08c-3.53,0-7.49,4.12-12.07,8.89-6.4,6.66-13.65,14.21-21.64,12.72-8.26-1.55-12.52-10.45-12.33-18,.18-7.23,4.29-15.48,15.31-17,7.3-1,15.81-6.42,22.76-14.49,6.61-7.7,10.48-16.18,10.07-22.12-.36-5.41-4.24-8.39-10.9-8.39-7.47,0-16.76,6.44-25.48,17.67a104,104,0,0,0-18,36.37c-4.2,16.75-1.27,28.79,8.27,33.9a29.35,29.35,0,0,0,14,3.65c11.66,0,21.93-7.31,28.27-15.34,5.35-6.78,7.6-13.54,5.34-16.08A4.7,4.7,0,0,0,1087.38,418Zm-34.68-21.45c0-2.12,8.26-15.06,15.62-22,3.17-3,4.93-3.63,5.86-3.63a1.63,1.63,0,0,1,.56.09c.93.38,1.2,1.89,1.26,3.09C1076.37,381.61,1067.69,393.7,1052.7,396.55Z"/><path d="M807.26,507.4c0-.86-.53-1.3-1.58-1.3v-1.29h11.09v1.29a1.35,1.35,0,0,0-.9.33,1.16,1.16,0,0,0-.4,1v32.69a1.17,1.17,0,0,0,.4,1,1.4,1.4,0,0,0,.9.32v1.3H805.68v-1.3c1.05,0,1.58-.43,1.58-1.29V526.55H784.08v13.54a1.19,1.19,0,0,0,.39,1,1.44,1.44,0,0,0,.91.32v1.3H774.5v-1.3c.91,0,1.37-.43,1.37-1.29V507.4c0-.86-.46-1.3-1.37-1.3v-1.29h10.88v1.29a1.4,1.4,0,0,0-.91.33,1.18,1.18,0,0,0-.39,1v12.24h23.18Z"/><path d="M851.69,504.38a29,29,0,0,1,8.06,1.18,24.88,24.88,0,0,1,7.49,3.57,19.34,19.34,0,0,1,5.54,6,18.22,18.22,0,0,1,0,17.21,19.45,19.45,0,0,1-5.54,6,23.27,23.27,0,0,1-7.49,3.45,30.65,30.65,0,0,1-16.13,0,23.37,23.37,0,0,1-7.49-3.45,19.45,19.45,0,0,1-5.54-6,18.22,18.22,0,0,1,0-17.21,19.34,19.34,0,0,1,5.54-6,25,25,0,0,1,7.49-3.57A29,29,0,0,1,851.69,504.38Zm0,6.62a18.32,18.32,0,0,0-5.48.86,16.94,16.94,0,0,0-4.93,2.49,13,13,0,0,0-3.56,4,11.33,11.33,0,0,0,0,10.8,12.89,12.89,0,0,0,3.56,4,16.68,16.68,0,0,0,4.93,2.48,17.66,17.66,0,0,0,10.95,0,16.56,16.56,0,0,0,4.93-2.48,12.89,12.89,0,0,0,3.56-4,11.33,11.33,0,0,0,0-10.8,13,13,0,0,0-3.56-4,16.82,16.82,0,0,0-4.93-2.49A18.3,18.3,0,0,0,851.69,511Z"/><path d="M905.76,540.09c0,.86.53,1.29,1.58,1.29v1.3H896.25v-1.3a1.4,1.4,0,0,0,.9-.32,1.17,1.17,0,0,0,.4-1V511.43H885.67a2.47,2.47,0,0,0-1.26.36,1.45,1.45,0,0,0-.61,1.37h-1.3V503.08h1.3a1.45,1.45,0,0,0,.61,1.37,2.47,2.47,0,0,0,1.26.36h32a2.47,2.47,0,0,0,1.26-.36,1.45,1.45,0,0,0,.61-1.37h1.3v10.08h-1.3a1.45,1.45,0,0,0-.61-1.37,2.47,2.47,0,0,0-1.26-.36H905.76Z"/><path d="M965.45,512.58a1.33,1.33,0,0,0-.62-1.19,4.17,4.17,0,0,0-2.12-.39H939.38v8.93h14.11a5.19,5.19,0,0,0,2.24-.4c.52-.26.79-.95.79-2h1.29v11.23h-1.29c0-1.1-.27-1.81-.79-2.12a4.47,4.47,0,0,0-2.24-.47H939.38v9.93h24a2.85,2.85,0,0,0,1.76-.5,1.6,1.6,0,0,0,.69-1.37h1.29v9.87h-1.29q0-1.08-.69-1.23a9.26,9.26,0,0,0-1.76-.14H929.88v-1.3a1.44,1.44,0,0,0,.9-.32,1.19,1.19,0,0,0,.39-1V507.4a1.18,1.18,0,0,0-.39-1,1.39,1.39,0,0,0-.9-.33v-1.29h32.83a3.6,3.6,0,0,0,2.12-.47,1.5,1.5,0,0,0,.62-1.26h1.29v9.5Z"/><path d="M1013,544.05q0-1.08-.69-1.23a9.26,9.26,0,0,0-1.76-.14H976.32v-1.3q2.16,0,2.16-1.29V507.4c0-.86-.72-1.3-2.16-1.3v-1.29H988.7v1.29c-1.34,0-2,.44-2,1.3v28.65h23.91a2.85,2.85,0,0,0,1.76-.5,1.6,1.6,0,0,0,.69-1.37h1.29v9.87Z"/></svg>