<svg id="Ebene_1" data-name="Ebene 1" xmlns="http://www.w3.org/2000/svg" viewBox="0 0 216.14 225.96"><defs><style>.cls-1,.cls-3{fill:#7ac29e;}.cls-12,.cls-2{fill:#f5a470;}.cls-3,.cls-5{stroke:#7ac29e;}.cls-11,.cls-12,.cls-13,.cls-14,.cls-3,.cls-4,.cls-5,.cls-8,.cls-9{stroke-miterlimit:10;}.cls-4,.cls-6{fill:#bfdec2;}.cls-4{stroke:#bfdec2;}.cls-10,.cls-11,.cls-13,.cls-14,.cls-5,.cls-9{fill:none;}.cls-7{fill:#fff;}.cls-8{fill:#1d1d1b;stroke:#1d1d1b;}.cls-10,.cls-13,.cls-9{stroke:#5b6275;}.cls-10,.cls-13{stroke-linecap:round;}.cls-10,.cls-15{stroke-linejoin:bevel;}.cls-11,.cls-12{stroke:#f5a470;}.cls-13{stroke-width:3px;}.cls-14{stroke:#95c11f;}.cls-15{fill:#f4e7d5;stroke:#f4e7d5;}</style></defs><title>Monster-behind</title><path class="cls-1" d="M74.44,231.42,95,185.5h6L78.89,231.42l-4.45,6s-22-.49-8-10C66.45,227.41,74.44,225.4,74.44,231.42Z" transform="translate(-23.91 -11.48)"/><path class="cls-1" d="M171.52,231.42,144.7,185.5h-7.81l28.82,45.92,5.81,6s28.75-.49,10.42-10C181.94,227.41,171.52,225.4,171.52,231.42Z" transform="translate(-23.91 -11.48)"/><path class="cls-2" d="M81.52,71.54s16.1-34.11,46.87-32.77c0,0,47.08-16.06,59.66,59.53,0,0,1.73,12.71,8.16,18.06s20.48,22.08,4.42,58.87S84.24,208.68,70.86,153.15c0,0-40.8-42.14,6.69-64.21Z" transform="translate(-23.91 -11.48)"/><path class="cls-3" d="M198.19,159.49l22.23-59.12s-7.46-20.51,3-35.92c0,0,13.53-11.78,8.44,28.06,0,0,14.74-11.19,3.45,4.77-2.49,3.5-10,7.74-10,7.74s-11.86,63.08-27.05,67.63Z" transform="translate(-23.91 -11.48)"/><path class="cls-4" d="M77.55,88.94s-1.64-7.2-6.35-10.59c-2.33-1.67-5.42-2.41-9.43-.88-3.23,1.24-7.06,3.94-11.58,8.8,0,0-10.66,24.25,13.68,40.78,0,0,27.1,26.45-4.31,41.88,0,0-22,2.2-28.1-23.7,0,0-23.4-64.47,15-83.2a59.57,59.57,0,0,1,9.81-3.09c5.84-1.29,13.19-1.94,18.86.81A14.71,14.71,0,0,1,82.88,69Z" transform="translate(-23.91 -11.48)"/><path class="cls-4" d="M131.3,43.85s7.6-1.66,9.26,2.2c0,0,1.94-29.36,28-2.56,0,0,4.54,3,5.37,14.34l12.4,31.5s9-39.21-9.26-52c0,0-16.25-31.11-37.39-17S131.3,43.85,131.3,43.85Z" transform="translate(-23.91 -11.48)"/><path class="cls-5" d="M151.1,55.42" transform="translate(-23.91 -11.48)"/><path class="cls-6" d="M89,59.81s-8.5-7.15,2.52-17.06c0,0,4.13-3.31-5.65-7.72,0,0-3.08-5,6.52-11.57,0,0-1.43,11.78,7.11,13.88,0,0,3.07,3.2-3,8.16v6.09Z" transform="translate(-23.91 -11.48)"/><path class="cls-4" d="M107.42,43.68s6.64-8.85-7.14-16.08.68-15.27.68-15.27-.06,10.61,11.62,11.13c0,0,3.58-1.48,0,7,0,0,.44,6.43,4.45,4.82,0,0,2.82,3.63-2,8.45Z" transform="translate(-23.91 -11.48)"/><ellipse class="cls-7" cx="173.77" cy="83.52" rx="16.41" ry="23.96" transform="translate(-42.86 66.86) rotate(-24.13)"/><ellipse class="cls-8" cx="168.96" cy="70.41" rx="5.58" ry="9.24" transform="translate(-37.82 50.98) rotate(-20.13)"/><ellipse class="cls-7" cx="115.75" cy="72.04" rx="28.99" ry="27.79"/><ellipse class="cls-8" cx="150.81" cy="73.04" rx="9.23" ry="13.23" transform="translate(-39.83 44.89) rotate(-20.13)"/><path class="cls-9" d="M129.43,118.4s20.45-14.84,37-7.1" transform="translate(-23.91 -11.48)"/><path class="cls-10" d="M158,127.31S175.45,147,184.49,139.5c0,0,6.29-3.93-3.15-14.55C181.34,125,176,134.78,158,127.31Z" transform="translate(-23.91 -11.48)"/><path class="cls-9" d="M157.15,118.4s6,13-5.44,14.67" transform="translate(-23.91 -11.48)"/><path class="cls-11" d="M90.11,33.71s3.37.8,4.88,6.29c0,0-.73,9.53-4.88,10.62s4.21,5.11,4.21,5.11" transform="translate(-23.91 -11.48)"/><path class="cls-12" d="M33,150.42s22.35-13.52,38.93,8.42c0,0,6.69-7.43-1.08-22.49,0,0-18.24-16.89-40.71,4.84Z" transform="translate(-23.91 -11.48)"/><path class="cls-12" d="M26.76,127.51s5.83-22.92,25.62-11.2c0,0-5.06-10.3-4.5-17,0,0-13.92-8.62-23.39,9.77Z" transform="translate(-23.91 -11.48)"/><path class="cls-12" d="M50.19,86.27S41,75,26.83,86.27c0,0,3.71-13.79,11.68-19S60.43,70,58.83,78.93Z" transform="translate(-23.91 -11.48)"/><path class="cls-12" d="M127.47,37.34s11-8.77,15.95-.81c0,0,2.5-4.37,5.83-4.22,0,0-1.84-12.29-13.8-8.85C135.45,23.46,127.36,30.48,127.47,37.34Z" transform="translate(-23.91 -11.48)"/><path class="cls-12" d="M158,18.16s3.25,13-1.86,15.55l7.56,5.2s8.44-6,5.26-10.91C169,28,165.55,19.64,158,18.16Z" transform="translate(-23.91 -11.48)"/><path class="cls-12" d="M170.73,46.1,177,37.34s5.51,4.37,7.28,8.76c0,0,1.39,5.88-10.67,9.32A11.74,11.74,0,0,0,170.73,46.1Z" transform="translate(-23.91 -11.48)"/><path class="cls-3" d="M65.14,57.84S69.32,70,67,76.7c0,0,8.92,1.28,10.58,12.24l5.33-20S82.14,57.11,65.14,57.84Z" transform="translate(-23.91 -11.48)"/><path class="cls-3" d="M26.13,88.94s8-14.82,24.06-2.67c0,0-2.48,9.27-2.31,13,0,0-13-11-23.39,9.77C24.49,109.07,24.06,94.68,26.13,88.94Z" transform="translate(-23.91 -11.48)"/><path class="cls-3" d="M33,150.42s24.32-11.81,38.93,8.42c0,0-9,15.85-22.63,8.54C49.31,167.38,37.3,164.7,33,150.42Z" transform="translate(-23.91 -11.48)"/><path class="cls-13" d="M114.72,58.8s14-28.41,28.73-10" transform="translate(-23.91 -11.48)"/><path class="cls-14" d="M100.28,21.54s3.29,5.52,8.4,5.54,2,6.63,2,6.63-1.53,4.47,4.06,5.72" transform="translate(-23.91 -11.48)"/><path class="cls-1" d="M173.77,56.38s10.39-3.15,11.08-9.13c0,0,6.26,9.42,3.9,29.56,0,0-5.13-13-15-15.26Z" transform="translate(-23.91 -11.48)"/><path class="cls-1" d="M150,32.23l5.17,1.48s5.74-1.34,2-15.87c0,0-8.49-5.59-21,5C136.2,22.85,146.6,22.35,150,32.23Z" transform="translate(-23.91 -11.48)"/><path class="cls-15" d="M111.64,75.46s23.15-27.62,42.92-16C154.56,59.42,135,30.9,111.64,75.46Z" transform="translate(-23.91 -11.48)"/><path class="cls-15" d="M158.46,61.78s6.83-7.63,17.88.82c0,0-8.61-4.88-15.93,1.3Z" transform="translate(-23.91 -11.48)"/></svg>