<svg id="Layer_1" data-name="Layer 1" xmlns="http://www.w3.org/2000/svg" viewBox="0 0 313.09 50.68"><defs><style>.cls-1{fill:none;stroke:#000;stroke-miterlimit:10;}</style></defs><title>myname</title><path class="cls-1" d="M67.74,129.59v48.53H61.47V129.59Z" transform="translate(-60.97 -128.73)"/><path class="cls-1" d="M78.68,130.23a90.64,90.64,0,0,1,13.32-1c9,0,15.41,2.08,19.66,6.05s6.84,9.57,6.84,17.42-2.45,14.4-7,18.87-12,7-21.46,7A103.72,103.72,0,0,1,78.68,178Zm6.26,42.92a39.41,39.41,0,0,0,6.34.36c13.39,0,20.67-7.49,20.67-20.59.07-11.45-6.41-18.72-19.66-18.72a35.8,35.8,0,0,0-7.35.64Z" transform="translate(-60.97 -128.73)"/><path class="cls-1" d="M133.47,162.85l-5,15.27H122l16.49-48.53H146l16.56,48.53h-6.69l-5.19-15.27ZM149.39,158l-4.76-14c-1.08-3.17-1.8-6.05-2.52-8.86H142c-.72,2.88-1.51,5.83-2.45,8.79l-4.75,14Z" transform="translate(-60.97 -128.73)"/><path class="cls-1" d="M225.85,156.81c-.36-6.77-.79-14.91-.72-21h-.21c-1.66,5.69-3.68,11.74-6.13,18.44l-8.56,23.54h-4.76l-7.85-23.11c-2.3-6.84-4.24-13.11-5.61-18.87h-.15c-.14,6.05-.5,14.19-.93,21.46l-1.3,20.81h-6L187,129.59h8l8.28,23.47c2,6,3.68,11.31,4.9,16.35h.22c1.22-4.9,2.95-10.23,5.11-16.35l8.64-23.47h8l3,48.53h-6.12Z" transform="translate(-60.97 -128.73)"/><path class="cls-1" d="M268,155.37H249.1v17.49h21v5.26H242.84V129.59h26.21v5.25h-20v15.34H268Z" transform="translate(-60.97 -128.73)"/><path class="cls-1" d="M289.49,129.59h6.27v32.47c0,12.89-6.34,16.85-14.69,16.85a20.26,20.26,0,0,1-6.7-1.15l.94-5.11a15,15,0,0,0,5.25.93c5.62,0,8.93-2.52,8.93-12Z" transform="translate(-60.97 -128.73)"/><path class="cls-1" d="M331.33,155.37H312.46v17.49h21v5.26H306.2V129.59h26.21v5.25h-20v15.34h18.87Z" transform="translate(-60.97 -128.73)"/><path class="cls-1" d="M341.62,130.23a66,66,0,0,1,12-1c6.69,0,11,1.22,14,4a12.1,12.1,0,0,1,3.81,9.21c0,6.41-4,10.66-9.14,12.39V155c3.74,1.29,6,4.75,7.13,9.79,1.58,6.77,2.73,11.45,3.74,13.32h-6.48c-.79-1.37-1.87-5.55-3.24-11.59-1.44-6.7-4-9.22-9.72-9.44h-5.91v21h-6.26Zm6.26,22.11h6.41c6.7,0,10.95-3.67,10.95-9.22,0-6.26-4.54-9-11.16-9.07a25.66,25.66,0,0,0-6.2.58Z" transform="translate(-60.97 -128.73)"/></svg>